# xmcd CD database file
#
# Track frame offsets:
#	150
#	19039
#	35126
#	64029
#	84785
#	109035
#	134544
#	158449
#	175088
#	195794
#	213331
#
# Disc length: 3074 seconds
#
# Revision: 3
# Processed by: cddbd v1.5.2PL0 Copyright (c) Steve Scherf et al.
# Submitted via: CDex 1.70beta2
#
DISCID=810c000b
DTITLE=筋肉少女帯 - 蔦からまるQの惑星
DYEAR=2010
DGENRE=Heavy Metal
TTITLE0=アウェー イン ザ ライフ
TTITLE1=レセプター (受容体)
TTITLE2=ワインライダー・フォーエバー (筋少Ver.)
TTITLE3=家なき子と打点王
TTITLE4=爆殺少女人形舞一号
TTITLE5=あのコは夏フェス焼け
TTITLE6=暁の戦力外部隊
TTITLE7=捨て曲のマリア
TTITLE8=若いコとドライブ ～80'sから来た恋人～
TTITLE9=ゴミ屋敷の王女
TTITLE10=ア デイ イン ザ ライフ
EXTD=YEAR: 2010
EXTT0=
EXTT1=
EXTT2=
EXTT3=
EXTT4=
EXTT5=
EXTT6=
EXTT7=
EXTT8=
EXTT9=
EXTT10=
PLAYORDER=
